<svg xmlns="http://www.w3.org/2000/svg" xmlns:xlink="http://www.w3.org/1999/xlink" viewBox="0 0 500 500" width="500" height="500" preserveAspectRatio="xMidYMid meet" style="width: 100%; height: 100%; transform: translate3d(0px, 0px, 0px); content-visibility: visible;"><defs><clipPath id="__lottie_element_10"><rect width="500" height="500" x="0" y="0"/></clipPath><clipPath id="__lottie_element_12"><path d="M0,0 L500,0 L500,500 L0,500z"/></clipPath><g id="__lottie_element_25"><g clip-path="url(#__lottie_element_26)" transform="matrix(1,0.00013269051851239055,-0.00013269051851239055,1,0.05320741981267929,-0.007583241444081068)" opacity="1" style="display: none;"><g class="primary design" transform="matrix(1,0,0,1,166.66400146484375,250.0030059814453)" opacity="1" style="display: block;"><g opacity="1" transform="matrix(1,0,0,1,0,0)"><path class="primary" fill="rgb(108,117,124)" fill-opacity="1" d=" M0,0 C0,0 0,0 0,0"/><path stroke-linecap="round" stroke-linejoin="round" fill-opacity="0" class="primary" stroke="rgb(108,117,124)" stroke-opacity="1" stroke-width="53" d=" M0,0 C0,0 0,0 0,0"/></g></g><g class="primary design" transform="matrix(1,0,0,1,249.9980010986328,250.0030059814453)" opacity="1" style="display: block;"><g opacity="1" transform="matrix(1,0,0,1,0,0)"><path class="primary" fill="rgb(108,117,124)" fill-opacity="1" d=" M0,0 C0,0 0,0 0,0"/><path stroke-linecap="round" stroke-linejoin="round" fill-opacity="0" class="primary" stroke="rgb(108,117,124)" stroke-opacity="1" stroke-width="53" d=" M0,0 C0,0 0,0 0,0"/></g></g><g class="primary design" transform="matrix(1,0,0,1,333.3320007324219,250.0305633544922)" opacity="1" style="display: block;"><g opacity="1" transform="matrix(1,0,0,1,0,0)"><path class="primary" fill="rgb(108,117,124)" fill-opacity="1" d=" M0,0 C0,0 0,0 0,0"/><path stroke-linecap="round" stroke-linejoin="round" fill-opacity="0" class="primary" stroke="rgb(108,117,124)" stroke-opacity="1" stroke-width="53" d=" M0,0 C0,0 0,0 0,0"/></g></g></g></g><clipPath id="__lottie_element_26"><path d="M0,0 L500,0 L500,500 L0,500z"/></clipPath><filter id="__lottie_element_29" filterUnits="objectBoundingBox" x="0%" y="0%" width="100%" height="100%"><feComponentTransfer in="SourceGraphic"><feFuncA type="table" tableValues="1.0 0.0"/></feComponentTransfer></filter><mask id="__lottie_element_25_2" mask-type="alpha"><g filter="url(#__lottie_element_29)"><rect width="500" height="500" x="0" y="0" fill="#ffffff" opacity="0"/><use xmlns:ns1="http://www.w3.org/1999/xlink" ns1:href="#__lottie_element_25"/></g></mask></defs><g clip-path="url(#__lottie_element_10)"><g clip-path="url(#__lottie_element_12)" transform="matrix(1,0,0,1,0,0)" opacity="1" style="display: block;"><g class="primary design" style="display: none;"><g><path stroke-linecap="round" stroke-linejoin="round" fill-opacity="0" class="primary"/></g></g><g mask="url(#__lottie_element_25_2)" style="display: none;"><g class="primary design" transform="matrix(20.829999923706055,0.002763943513855338,-0.002763943513855338,20.829999923706055,250.02003479003906,250.0255889892578)" opacity="1"><g opacity="1" transform="matrix(1,0,0,1,0,0)"><path class="primary" fill="rgb(108,117,124)" fill-opacity="1" d=" M3.25,-7.998000144958496 C3.25,-7.998000144958496 -3.25,-7.998000144958496 -3.25,-7.998000144958496 C-6.96999979019165,-7.998000144958496 -10,-4.9679999351501465 -10,-1.2480000257492065 C-10,-1.2480000257492065 -10,7.251999855041504 -10,7.251999855041504 C-10,7.6620001792907715 -9.65999984741211,8.001999855041504 -9.25,8.001999855041504 C-9.25,8.001999855041504 3.25,8.001999855041504 3.25,8.001999855041504 C6.96999979019165,8.001999855041504 10,4.9720001220703125 10,1.2519999742507935 C10,1.2519999742507935 10,-1.2480000257492065 10,-1.2480000257492065 C10,-4.9679999351501465 6.96999979019165,-7.998000144958496 3.25,-7.998000144958496z"/></g></g></g><g class="primary design" transform="matrix(20.829999923706055,0,0,20.829999923706055,250,250)" opacity="1" style="display: none;"><g opacity="1" transform="matrix(1,0,0,1,0,0)"><path class="primary" fill="rgb(108,117,124)" fill-opacity="1" d=" M3.25,-7.998000144958496 C3.25,-7.998000144958496 -3.25,-7.998000144958496 -3.25,-7.998000144958496 C-6.96999979019165,-7.998000144958496 -10,-4.9679999351501465 -10,-1.2480000257492065 C-10,-1.2480000257492065 -10,7.251999855041504 -10,7.251999855041504 C-10,7.6620001792907715 -9.65999984741211,8.001999855041504 -9.25,8.001999855041504 C-9.25,8.001999855041504 3.25,8.001999855041504 3.25,8.001999855041504 C6.96999979019165,8.001999855041504 10,4.9720001220703125 10,1.2519999742507935 C10,1.2519999742507935 10,-1.2480000257492065 10,-1.2480000257492065 C10,-4.9679999351501465 6.96999979019165,-7.998000144958496 3.25,-7.998000144958496z M5.230000019073486,0.24199999868869781 C5.210000038146973,0.32199999690055847 5.190000057220459,0.4020000100135803 5.150000095367432,0.4819999933242798 C5.119999885559082,0.5519999861717224 5.079999923706055,0.621999979019165 5.039999961853027,0.6919999718666077 C4.989999771118164,0.7620000243186951 4.940000057220459,0.8220000267028809 4.880000114440918,0.8820000290870667 C4.829999923706055,0.9419999718666077 4.760000228881836,0.9919999837875366 4.690000057220459,1.0420000553131104 C4.630000114440918,1.0820000171661377 4.550000190734863,1.121999979019165 4.480000019073486,1.1519999504089355 C4.400000095367432,1.1820000410079956 4.320000171661377,1.2120000123977661 4.239999771118164,1.222000002861023 C4.159999847412109,1.2419999837875366 4.079999923706055,1.2519999742507935 4,1.2519999742507935 C3.6700000762939453,1.2519999742507935 3.3499999046325684,1.1119999885559082 3.119999885559082,0.8820000290870667 C3.059999942779541,0.8220000267028809 3.009999990463257,0.7620000243186951 2.9600000381469727,0.6919999718666077 C2.9200000762939453,0.621999979019165 2.880000114440918,0.5519999861717224 2.8499999046325684,0.4819999933242798 C2.809999942779541,0.4020000100135803 2.7899999618530273,0.32199999690055847 2.7699999809265137,0.24199999868869781 C2.759999990463257,0.16200000047683716 2.75,0.0820000022649765 2.75,0.0020000000949949026 C2.75,-0.328000009059906 2.880000114440918,-0.6480000019073486 3.119999885559082,-0.8880000114440918 C3.1700000762939453,-0.9380000233650208 3.240000009536743,-0.9980000257492065 3.309999942779541,-1.0379999876022339 C3.369999885559082,-1.0880000591278076 3.450000047683716,-1.128000020980835 3.5199999809265137,-1.1579999923706055 C3.5999999046325684,-1.187999963760376 3.680000066757202,-1.2079999446868896 3.759999990463257,-1.2280000448226929 C4.159999847412109,-1.3079999685287476 4.599999904632568,-1.1779999732971191 4.880000114440918,-0.8880000114440918 C5.119999885559082,-0.6480000019073486 5.25,-0.328000009059906 5.25,0.0020000000949949026 C5.25,0.0820000022649765 5.239999771118164,0.16200000047683716 5.230000019073486,0.24199999868869781z M1.25,0.0020000000949949026 C1.25,0.3319999873638153 1.1200000047683716,0.6520000100135803 0.8799999952316284,0.8820000290870667 C0.8299999833106995,0.9419999718666077 0.7599999904632568,0.9919999837875366 0.6899999976158142,1.0420000553131104 C0.6299999952316284,1.0820000171661377 0.550000011920929,1.121999979019165 0.47999998927116394,1.1519999504089355 C0.4000000059604645,1.1820000410079956 0.3199999928474426,1.2120000123977661 0.23999999463558197,1.222000002861023 C0.1599999964237213,1.2419999837875366 0.07999999821186066,1.2519999742507935 0,1.2519999742507935 C-0.07999999821186066,1.2519999742507935 -0.1599999964237213,1.2419999837875366 -0.23999999463558197,1.222000002861023 C-0.3199999928474426,1.2120000123977661 -0.4000000059604645,1.1820000410079956 -0.47999998927116394,1.1519999504089355 C-0.550000011920929,1.121999979019165 -0.6299999952316284,1.0820000171661377 -0.6899999976158142,1.0420000553131104 C-0.7599999904632568,0.9919999837875366 -0.8299999833106995,0.9419999718666077 -0.8799999952316284,0.8820000290870667 C-1.1200000047683716,0.6520000100135803 -1.25,0.3319999873638153 -1.25,0.0020000000949949026 C-1.25,-0.328000009059906 -1.1200000047683716,-0.6480000019073486 -0.8799999952316284,-0.8880000114440918 C-0.8299999833106995,-0.9380000233650208 -0.7599999904632568,-0.9980000257492065 -0.6899999976158142,-1.0379999876022339 C-0.6299999952316284,-1.0880000591278076 -0.550000011920929,-1.1180000305175781 -0.47999998927116394,-1.1579999923706055 C-0.4000000059604645,-1.187999963760376 -0.3199999928474426,-1.2079999446868896 -0.23999999463558197,-1.2280000448226929 C-0.07999999821186066,-1.2580000162124634 0.07999999821186066,-1.2580000162124634 0.23999999463558197,-1.2280000448226929 C0.3199999928474426,-1.2079999446868896 0.4000000059604645,-1.187999963760376 0.47999998927116394,-1.1579999923706055 C0.550000011920929,-1.1180000305175781 0.6299999952316284,-1.0880000591278076 0.6899999976158142,-1.0379999876022339 C0.7599999904632568,-0.9980000257492065 0.8299999833106995,-0.9380000233650208 0.8799999952316284,-0.8880000114440918 C1.1200000047683716,-0.6480000019073486 1.25,-0.328000009059906 1.25,0.0020000000949949026z M-4.880000114440918,-0.878000020980835 C-4.829999923706055,-0.9380000233650208 -4.760000228881836,-0.9980000257492065 -4.690000057220459,-1.0379999876022339 C-4.630000114440918,-1.0880000591278076 -4.550000190734863,-1.1180000305175781 -4.480000019073486,-1.1579999923706055 C-4.400000095367432,-1.187999963760376 -4.320000171661377,-1.2079999446868896 -4.239999771118164,-1.2280000448226929 C-4.079999923706055,-1.2580000162124634 -3.9200000762939453,-1.2580000162124634 -3.759999990463257,-1.2280000448226929 C-3.680000066757202,-1.2079999446868896 -3.5999999046325684,-1.187999963760376 -3.5199999809265137,-1.1579999923706055 C-3.450000047683716,-1.1180000305175781 -3.369999885559082,-1.0880000591278076 -3.309999942779541,-1.0379999876022339 C-3.240000009536743,-0.9980000257492065 -3.1700000762939453,-0.9380000233650208 -3.119999885559082,-0.878000020980835 C-2.880000114440918,-0.6480000019073486 -2.75,-0.328000009059906 -2.75,0.0020000000949949026 C-2.75,0.32199999690055847 -2.880000114440918,0.6520000100135803 -3.119999885559082,0.8820000290870667 C-3.1700000762939453,0.9419999718666077 -3.240000009536743,0.9919999837875366 -3.309999942779541,1.0420000553131104 C-3.369999885559082,1.0820000171661377 -3.450000047683716,1.121999979019165 -3.5199999809265137,1.1519999504089355 C-3.5999999046325684,1.1820000410079956 -3.680000066757202,1.2120000123977661 -3.759999990463257,1.222000002861023 C-3.8399999141693115,1.2419999837875366 -3.9200000762939453,1.2519999742507935 -4,1.2519999742507935 C-4.079999923706055,1.2519999742507935 -4.159999847412109,1.2419999837875366 -4.239999771118164,1.222000002861023 C-4.320000171661377,1.2120000123977661 -4.400000095367432,1.1820000410079956 -4.480000019073486,1.1519999504089355 C-4.550000190734863,1.121999979019165 -4.630000114440918,1.0820000171661377 -4.690000057220459,1.0420000553131104 C-4.760000228881836,0.9919999837875366 -4.829999923706055,0.9419999718666077 -4.880000114440918,0.8820000290870667 C-5.119999885559082,0.6520000100135803 -5.25,0.32199999690055847 -5.25,0.0020000000949949026 C-5.25,-0.328000009059906 -5.119999885559082,-0.6480000019073486 -4.880000114440918,-0.878000020980835z"/></g></g><g class="primary design" transform="matrix(20.829999923706055,0,0,20.829999923706055,250,250)" opacity="1" style="display: block;"><g opacity="1" transform="matrix(1,0,0,1,0,0)"><path class="primary" fill="rgb(108,117,124)" fill-opacity="1" d=" M3.25,-7.998000144958496 C3.25,-7.998000144958496 -3.25,-7.998000144958496 -3.25,-7.998000144958496 C-6.96999979019165,-7.998000144958496 -10,-4.9679999351501465 -10,-1.2480000257492065 C-10,-1.2480000257492065 -10,7.251999855041504 -10,7.251999855041504 C-10,7.6620001792907715 -9.65999984741211,8.001999855041504 -9.25,8.001999855041504 C-9.25,8.001999855041504 3.25,8.001999855041504 3.25,8.001999855041504 C6.96999979019165,8.001999855041504 10,4.9720001220703125 10,1.2519999742507935 C10,1.2519999742507935 10,-1.2480000257492065 10,-1.2480000257492065 C10,-4.9679999351501465 6.96999979019165,-7.998000144958496 3.25,-7.998000144958496z M5.230000019073486,0.24199999868869781 C5.210000038146973,0.32199999690055847 5.190000057220459,0.4020000100135803 5.150000095367432,0.4819999933242798 C5.119999885559082,0.5519999861717224 5.079999923706055,0.621999979019165 5.039999961853027,0.6919999718666077 C4.989999771118164,0.7620000243186951 4.940000057220459,0.8220000267028809 4.880000114440918,0.8820000290870667 C4.829999923706055,0.9419999718666077 4.760000228881836,0.9919999837875366 4.690000057220459,1.0420000553131104 C4.630000114440918,1.0820000171661377 4.550000190734863,1.121999979019165 4.480000019073486,1.1519999504089355 C4.400000095367432,1.1820000410079956 4.320000171661377,1.2120000123977661 4.239999771118164,1.222000002861023 C4.159999847412109,1.2419999837875366 4.079999923706055,1.2519999742507935 4,1.2519999742507935 C3.6700000762939453,1.2519999742507935 3.3499999046325684,1.1119999885559082 3.119999885559082,0.8820000290870667 C3.059999942779541,0.8220000267028809 3.009999990463257,0.7620000243186951 2.9600000381469727,0.6919999718666077 C2.9200000762939453,0.621999979019165 2.880000114440918,0.5519999861717224 2.8499999046325684,0.4819999933242798 C2.809999942779541,0.4020000100135803 2.7899999618530273,0.32199999690055847 2.7699999809265137,0.24199999868869781 C2.759999990463257,0.16200000047683716 2.75,0.0820000022649765 2.75,0.0020000000949949026 C2.75,-0.328000009059906 2.880000114440918,-0.6480000019073486 3.119999885559082,-0.8880000114440918 C3.1700000762939453,-0.9380000233650208 3.240000009536743,-0.9980000257492065 3.309999942779541,-1.0379999876022339 C3.369999885559082,-1.0880000591278076 3.450000047683716,-1.128000020980835 3.5199999809265137,-1.1579999923706055 C3.5999999046325684,-1.187999963760376 3.680000066757202,-1.2079999446868896 3.759999990463257,-1.2280000448226929 C4.159999847412109,-1.3079999685287476 4.599999904632568,-1.1779999732971191 4.880000114440918,-0.8880000114440918 C5.119999885559082,-0.6480000019073486 5.25,-0.328000009059906 5.25,0.0020000000949949026 C5.25,0.0820000022649765 5.239999771118164,0.16200000047683716 5.230000019073486,0.24199999868869781z M1.25,0.0020000000949949026 C1.25,0.3319999873638153 1.1200000047683716,0.6520000100135803 0.8799999952316284,0.8820000290870667 C0.8299999833106995,0.9419999718666077 0.7599999904632568,0.9919999837875366 0.6899999976158142,1.0420000553131104 C0.6299999952316284,1.0820000171661377 0.550000011920929,1.121999979019165 0.47999998927116394,1.1519999504089355 C0.4000000059604645,1.1820000410079956 0.3199999928474426,1.2120000123977661 0.23999999463558197,1.222000002861023 C0.1599999964237213,1.2419999837875366 0.07999999821186066,1.2519999742507935 0,1.2519999742507935 C-0.07999999821186066,1.2519999742507935 -0.1599999964237213,1.2419999837875366 -0.23999999463558197,1.222000002861023 C-0.3199999928474426,1.2120000123977661 -0.4000000059604645,1.1820000410079956 -0.47999998927116394,1.1519999504089355 C-0.550000011920929,1.121999979019165 -0.6299999952316284,1.0820000171661377 -0.6899999976158142,1.0420000553131104 C-0.7599999904632568,0.9919999837875366 -0.8299999833106995,0.9419999718666077 -0.8799999952316284,0.8820000290870667 C-1.1200000047683716,0.6520000100135803 -1.25,0.3319999873638153 -1.25,0.0020000000949949026 C-1.25,-0.328000009059906 -1.1200000047683716,-0.6480000019073486 -0.8799999952316284,-0.8880000114440918 C-0.8299999833106995,-0.9380000233650208 -0.7599999904632568,-0.9980000257492065 -0.6899999976158142,-1.0379999876022339 C-0.6299999952316284,-1.0880000591278076 -0.550000011920929,-1.1180000305175781 -0.47999998927116394,-1.1579999923706055 C-0.4000000059604645,-1.187999963760376 -0.3199999928474426,-1.2079999446868896 -0.23999999463558197,-1.2280000448226929 C-0.07999999821186066,-1.2580000162124634 0.07999999821186066,-1.2580000162124634 0.23999999463558197,-1.2280000448226929 C0.3199999928474426,-1.2079999446868896 0.4000000059604645,-1.187999963760376 0.47999998927116394,-1.1579999923706055 C0.550000011920929,-1.1180000305175781 0.6299999952316284,-1.0880000591278076 0.6899999976158142,-1.0379999876022339 C0.7599999904632568,-0.9980000257492065 0.8299999833106995,-0.9380000233650208 0.8799999952316284,-0.8880000114440918 C1.1200000047683716,-0.6480000019073486 1.25,-0.328000009059906 1.25,0.0020000000949949026z M-4.880000114440918,-0.878000020980835 C-4.829999923706055,-0.9380000233650208 -4.760000228881836,-0.9980000257492065 -4.690000057220459,-1.0379999876022339 C-4.630000114440918,-1.0880000591278076 -4.550000190734863,-1.1180000305175781 -4.480000019073486,-1.1579999923706055 C-4.400000095367432,-1.187999963760376 -4.320000171661377,-1.2079999446868896 -4.239999771118164,-1.2280000448226929 C-4.079999923706055,-1.2580000162124634 -3.9200000762939453,-1.2580000162124634 -3.759999990463257,-1.2280000448226929 C-3.680000066757202,-1.2079999446868896 -3.5999999046325684,-1.187999963760376 -3.5199999809265137,-1.1579999923706055 C-3.450000047683716,-1.1180000305175781 -3.369999885559082,-1.0880000591278076 -3.309999942779541,-1.0379999876022339 C-3.240000009536743,-0.9980000257492065 -3.1700000762939453,-0.9380000233650208 -3.119999885559082,-0.878000020980835 C-2.880000114440918,-0.6480000019073486 -2.75,-0.328000009059906 -2.75,0.0020000000949949026 C-2.75,0.32199999690055847 -2.880000114440918,0.6520000100135803 -3.119999885559082,0.8820000290870667 C-3.1700000762939453,0.9419999718666077 -3.240000009536743,0.9919999837875366 -3.309999942779541,1.0420000553131104 C-3.369999885559082,1.0820000171661377 -3.450000047683716,1.121999979019165 -3.5199999809265137,1.1519999504089355 C-3.5999999046325684,1.1820000410079956 -3.680000066757202,1.2120000123977661 -3.759999990463257,1.222000002861023 C-3.8399999141693115,1.2419999837875366 -3.9200000762939453,1.2519999742507935 -4,1.2519999742507935 C-4.079999923706055,1.2519999742507935 -4.159999847412109,1.2419999837875366 -4.239999771118164,1.222000002861023 C-4.320000171661377,1.2120000123977661 -4.400000095367432,1.1820000410079956 -4.480000019073486,1.1519999504089355 C-4.550000190734863,1.121999979019165 -4.630000114440918,1.0820000171661377 -4.690000057220459,1.0420000553131104 C-4.760000228881836,0.9919999837875366 -4.829999923706055,0.9419999718666077 -4.880000114440918,0.8820000290870667 C-5.119999885559082,0.6520000100135803 -5.25,0.32199999690055847 -5.25,0.0020000000949949026 C-5.25,-0.328000009059906 -5.119999885559082,-0.6480000019073486 -4.880000114440918,-0.878000020980835z"/></g></g></g></g></svg>